<?plantuml 1.2026.1?><svg xmlns="http://www.w3.org/2000/svg" xmlns:xlink="http://www.w3.org/1999/xlink" contentStyleType="text/css" data-diagram-type="CLASS" height="256px" preserveAspectRatio="none" style="width:276px;height:256px;" version="1.1" viewBox="0 0 276 256" width="276px" zoomAndPan="magnify"><defs/><g><!--class Category--><g class="entity" data-qualified-name="Category" data-source-line="5" id="ent0002"><rect fill="#FFFFFF" height="105.1563" rx="2.5" ry="2.5" style="stroke:#000000;stroke-width:1;" width="257.6084" x="12" y="12"/><ellipse cx="84.5327" cy="32.1328" fill="#FFFFFF" rx="9" ry="9" style="stroke:#000000;stroke-width:1;"/><path d="M87.939,34.1016 C87.2202,34.7734 85.9233,35.9453 84.1733,35.9453 C81.9546,35.9453 80.9858,34.0078 80.9858,32.0547 C80.9858,29.6641 82.4702,28.3984 84.1108,28.3984 C86.1265,28.3984 86.3452,29.9141 86.5171,31.0078 L87.939,30.8203 C87.8452,30.2422 87.7671,29.6641 87.7671,28.6953 C87.7671,28.0234 87.814,27.4766 87.8452,27.0547 L86.439,27.0547 L86.3296,28.0078 C85.7358,27.4766 85.0952,26.9297 83.8765,26.9297 C81.8296,26.9297 79.4233,28.7578 79.4233,32.0703 C79.4233,35.0078 81.189,37.3984 84.189,37.3984 C86.6265,37.3984 88.3296,35.7734 88.9233,35.1953 L87.939,34.1016 Z " fill="#000000"/><text fill="#000000" font-family="Verdana" font-size="12" font-style="italic" lengthAdjust="spacing" textLength="109.043" x="100.0327" y="28.1387">&#171;Aggregate Root&#187;</text><text fill="#000000" font-family="Verdana" font-size="14" lengthAdjust="spacing" textLength="63.9502" x="122.5791" y="43.9639">Category</text><line style="stroke:#000000;stroke-width:1;" x1="13" x2="268.6084" y1="52.2656" y2="52.2656"/><text fill="#000000" font-family="Verdana" font-size="14" lengthAdjust="spacing" textLength="170.5225" x="18" y="69.2607">-categoryId : CategoryId</text><text fill="#000000" font-family="Verdana" font-size="14" lengthAdjust="spacing" textLength="100.1533" x="18" y="85.5576">-name : String</text><line style="stroke:#000000;stroke-width:1;" x1="13" x2="268.6084" y1="92.8594" y2="92.8594"/><text fill="#000000" font-family="Verdana" font-size="14" lengthAdjust="spacing" textLength="245.6084" x="18" y="109.8545">+rename(newName : String) : void</text></g><!--class CategoryId--><g class="entity" data-qualified-name="CategoryId" data-source-line="12" id="ent0003"><rect fill="#FFFFFF" height="72.5625" rx="2.5" ry="2.5" style="stroke:#000000;stroke-width:1;" width="115.4648" x="83.07" y="177.16"/><ellipse cx="96.07" cy="197.2928" fill="#FFFFFF" rx="9" ry="9" style="stroke:#000000;stroke-width:1;"/><path d="M99.4763,199.2616 C98.7575,199.9334 97.4606,201.1053 95.7106,201.1053 C93.4919,201.1053 92.5231,199.1678 92.5231,197.2147 C92.5231,194.8241 94.0075,193.5584 95.6481,193.5584 C97.6638,193.5584 97.8825,195.0741 98.0544,196.1678 L99.4763,195.9803 C99.3825,195.4022 99.3044,194.8241 99.3044,193.8553 C99.3044,193.1834 99.3513,192.6366 99.3825,192.2147 L97.9763,192.2147 L97.8669,193.1678 C97.2731,192.6366 96.6325,192.0897 95.4138,192.0897 C93.3669,192.0897 90.9606,193.9178 90.9606,197.2303 C90.9606,200.1678 92.7263,202.5584 95.7263,202.5584 C98.1638,202.5584 99.8669,200.9334 100.4606,200.3553 L99.4763,199.2616 Z " fill="#000000"/><text fill="#000000" font-family="Verdana" font-size="12" font-style="italic" lengthAdjust="spacing" textLength="91.4648" x="106.07" y="193.2987">&#171;Value Object&#187;</text><text fill="#000000" font-family="Verdana" font-size="14" lengthAdjust="spacing" textLength="76.9658" x="113.3195" y="209.1239">CategoryId</text><line style="stroke:#000000;stroke-width:1;" x1="84.07" x2="197.5348" y1="217.4256" y2="217.4256"/><text fill="#000000" font-family="Verdana" font-size="14" lengthAdjust="spacing" textLength="92.3125" x="89.07" y="234.4207">-value : UUID</text><line style="stroke:#000000;stroke-width:1;" x1="84.07" x2="197.5348" y1="241.7225" y2="241.7225"/></g><!--reverse link Category to CategoryId--><g class="link" data-entity-1="ent0002" data-entity-2="ent0003" data-link-type="composition" data-source-line="16" id="lnk4"><path codeLine="16" d="M140.8,129.36 C140.8,149.01 140.8,158.94 140.8,176.78" fill="none" id="Category-backto-CategoryId" style="stroke:#000000;stroke-width:1;"/><polygon fill="#000000" points="140.8,117.36,136.8,123.36,140.8,129.36,144.8,123.36,140.8,117.36" style="stroke:#000000;stroke-width:1;"/></g><?plantuml-src NKxB2i903BplLyIR3mgUIoc8NdfHiDHxkWthsfgLxRQYuhyRYsZn4fAPoSnCmf7E19S6BQksjdn1ZsSeKTV6kuwhjMkSX-2HMw68mqYb6spRLGZUbbsWJ3lExPrWgTJ0m1e36UTla2GhOpmPkM7lN4XJU2Y02FH7aLKGV-LPDN2CKYo6NEpPl958nWAaWn1JfkjsB9Z9rZjRgUT_kdWdoG6RZc1NdaZ_qli1ZA4eiitxxzjt7aMZznS0?></g></svg>