<?plantuml 1.2026.1?><svg xmlns="http://www.w3.org/2000/svg" xmlns:xlink="http://www.w3.org/1999/xlink" contentStyleType="text/css" data-diagram-type="CLASS" height="452px" preserveAspectRatio="none" style="width:620px;height:452px;" version="1.1" viewBox="0 0 620 452" width="620px" zoomAndPan="magnify"><defs/><g><!--class StorageLocation--><g class="entity" data-qualified-name="StorageLocation" data-source-line="5" id="ent0002"><rect fill="#FFFFFF" height="235.5313" rx="2.5" ry="2.5" style="stroke:#000000;stroke-width:1;" width="468.21" x="144.97" y="12"/><ellipse cx="318.2073" cy="32.1328" fill="#FFFFFF" rx="9" ry="9" style="stroke:#000000;stroke-width:1;"/><path d="M321.6136,34.1016 C320.8948,34.7734 319.5979,35.9453 317.8479,35.9453 C315.6292,35.9453 314.6604,34.0078 314.6604,32.0547 C314.6604,29.6641 316.1448,28.3984 317.7854,28.3984 C319.8011,28.3984 320.0198,29.9141 320.1917,31.0078 L321.6136,30.8203 C321.5198,30.2422 321.4417,29.6641 321.4417,28.6953 C321.4417,28.0234 321.4886,27.4766 321.5198,27.0547 L320.1136,27.0547 L320.0042,28.0078 C319.4104,27.4766 318.7698,26.9297 317.5511,26.9297 C315.5042,26.9297 313.0979,28.7578 313.0979,32.0703 C313.0979,35.0078 314.8636,37.3984 317.8636,37.3984 C320.3011,37.3984 322.0042,35.7734 322.5979,35.1953 L321.6136,34.1016 Z " fill="#000000"/><text fill="#000000" font-family="Verdana" font-size="12" font-style="italic" lengthAdjust="spacing" textLength="109.043" x="338.3035" y="28.1387">&#171;Aggregate Root&#187;</text><text fill="#000000" font-family="Verdana" font-size="14" lengthAdjust="spacing" textLength="114.2354" x="335.7073" y="43.9639">StorageLocation</text><line style="stroke:#000000;stroke-width:1;" x1="145.97" x2="612.18" y1="52.2656" y2="52.2656"/><text fill="#000000" font-family="Verdana" font-size="14" lengthAdjust="spacing" textLength="159.708" x="150.97" y="69.2607">-locationId : LocationId</text><text fill="#000000" font-family="Verdana" font-size="14" lengthAdjust="spacing" textLength="113.5313" x="150.97" y="85.5576">-shopId : ShopId</text><text fill="#000000" font-family="Verdana" font-size="14" lengthAdjust="spacing" textLength="143.7393" x="150.97" y="101.8545">-type : LocationType</text><text fill="#000000" font-family="Verdana" font-size="14" lengthAdjust="spacing" textLength="94.3086" x="150.97" y="118.1514">-label : String</text><text fill="#000000" font-family="Verdana" font-size="14" lengthAdjust="spacing" textLength="161.4375" x="150.97" y="134.4482">-lowStockIndicator : int</text><text fill="#000000" font-family="Verdana" font-size="14" lengthAdjust="spacing" textLength="304.8965" x="150.97" y="150.7451">-stockLevels : Map&lt;ProductId, StockLevel&gt;</text><line style="stroke:#000000;stroke-width:1;" x1="145.97" x2="612.18" y1="158.0469" y2="158.0469"/><text fill="#000000" font-family="Verdana" font-size="14" lengthAdjust="spacing" textLength="410.6074" x="150.97" y="175.042">+increaseStock(productId : ProductId, quantity : int) : void</text><text fill="#000000" font-family="Verdana" font-size="14" lengthAdjust="spacing" textLength="415.3447" x="150.97" y="191.3389">+decreaseStock(productId : ProductId, quantity : int) : void</text><text fill="#000000" font-family="Verdana" font-size="14" lengthAdjust="spacing" textLength="300.9727" x="150.97" y="207.6357">+getStockLevel(productId : ProductId) : int</text><text fill="#000000" font-family="Verdana" font-size="14" lengthAdjust="spacing" textLength="348.7969" x="150.97" y="223.9326">+isShopFloorLow(productId : ProductId) : boolean</text><text fill="#000000" font-family="Verdana" font-size="14" lengthAdjust="spacing" textLength="456.21" x="150.97" y="240.2295">+hasEnoughStock(productId : ProductId, required : int) : boolean</text></g><!--class StockLevel--><g class="entity" data-qualified-name="StockLevel" data-source-line="20" id="ent0003"><rect fill="#FFFFFF" height="121.4531" rx="2.5" ry="2.5" style="stroke:#000000;stroke-width:1;" width="274.1582" x="12" y="324.53"/><ellipse cx="101.5967" cy="344.6628" fill="#FFFFFF" rx="9" ry="9" style="stroke:#000000;stroke-width:1;"/><path d="M105.0029,346.6316 C104.2842,347.3034 102.9873,348.4753 101.2373,348.4753 C99.0186,348.4753 98.0498,346.5378 98.0498,344.5847 C98.0498,342.1941 99.5342,340.9284 101.1748,340.9284 C103.1904,340.9284 103.4092,342.4441 103.5811,343.5378 L105.0029,343.3503 C104.9092,342.7722 104.8311,342.1941 104.8311,341.2253 C104.8311,340.5534 104.8779,340.0066 104.9092,339.5847 L103.5029,339.5847 L103.3936,340.5378 C102.7998,340.0066 102.1592,339.4597 100.9404,339.4597 C98.8936,339.4597 96.4873,341.2878 96.4873,344.6003 C96.4873,347.5378 98.2529,349.9284 101.2529,349.9284 C103.6904,349.9284 105.3936,348.3034 105.9873,347.7253 L105.0029,346.6316 Z " fill="#000000"/><text fill="#000000" font-family="Verdana" font-size="12" font-style="italic" lengthAdjust="spacing" textLength="91.4648" x="117.0967" y="340.6687">&#171;Value Object&#187;</text><text fill="#000000" font-family="Verdana" font-size="14" lengthAdjust="spacing" textLength="75.9473" x="124.8555" y="356.4939">StockLevel</text><line style="stroke:#000000;stroke-width:1;" x1="13" x2="285.1582" y1="364.7956" y2="364.7956"/><text fill="#000000" font-family="Verdana" font-size="14" lengthAdjust="spacing" textLength="152.5645" x="18" y="381.7907">-productId : ProductId</text><text fill="#000000" font-family="Verdana" font-size="14" lengthAdjust="spacing" textLength="95.2861" x="18" y="398.0876">-quantity : int</text><line style="stroke:#000000;stroke-width:1;" x1="13" x2="285.1582" y1="405.3894" y2="405.3894"/><text fill="#000000" font-family="Verdana" font-size="14" lengthAdjust="spacing" textLength="257.4209" x="18" y="422.3845">+increase(amount : int) : StockLevel</text><text fill="#000000" font-family="Verdana" font-size="14" lengthAdjust="spacing" textLength="262.1582" x="18" y="438.6814">+decrease(amount : int) : StockLevel</text></g><!--class LocationId--><g class="entity" data-qualified-name="LocationId" data-source-line="28" id="ent0004"><rect fill="#FFFFFF" height="72.5625" rx="2.5" ry="2.5" style="stroke:#000000;stroke-width:1;" width="115.4648" x="321.35" y="348.97"/><ellipse cx="334.35" cy="369.1028" fill="#FFFFFF" rx="9" ry="9" style="stroke:#000000;stroke-width:1;"/><path d="M337.7563,371.0716 C337.0375,371.7434 335.7406,372.9153 333.9906,372.9153 C331.7719,372.9153 330.8031,370.9778 330.8031,369.0247 C330.8031,366.6341 332.2875,365.3684 333.9281,365.3684 C335.9438,365.3684 336.1625,366.8841 336.3344,367.9778 L337.7563,367.7903 C337.6625,367.2122 337.5844,366.6341 337.5844,365.6653 C337.5844,364.9934 337.6313,364.4466 337.6625,364.0247 L336.2563,364.0247 L336.1469,364.9778 C335.5531,364.4466 334.9125,363.8997 333.6938,363.8997 C331.6469,363.8997 329.2406,365.7278 329.2406,369.0403 C329.2406,371.9778 331.0063,374.3684 334.0063,374.3684 C336.4438,374.3684 338.1469,372.7434 338.7406,372.1653 L337.7563,371.0716 Z " fill="#000000"/><text fill="#000000" font-family="Verdana" font-size="12" font-style="italic" lengthAdjust="spacing" textLength="91.4648" x="344.35" y="365.1087">&#171;Value Object&#187;</text><text fill="#000000" font-family="Verdana" font-size="14" lengthAdjust="spacing" textLength="72.4746" x="353.8451" y="380.9339">LocationId</text><line style="stroke:#000000;stroke-width:1;" x1="322.35" x2="435.8148" y1="389.2356" y2="389.2356"/><text fill="#000000" font-family="Verdana" font-size="14" lengthAdjust="spacing" textLength="92.3125" x="327.35" y="406.2307">-value : UUID</text><line style="stroke:#000000;stroke-width:1;" x1="322.35" x2="435.8148" y1="413.5325" y2="413.5325"/></g><!--class LocationType--><g class="entity" data-qualified-name="LocationType" data-source-line="32" id="ent0005"><rect fill="#FFFFFF" height="88.8594" rx="2.5" ry="2.5" style="stroke:#000000;stroke-width:1;" width="121.7959" x="472.18" y="340.82"/><ellipse cx="485.18" cy="360.9528" fill="#FFFFFF" rx="9" ry="9" style="stroke:#000000;stroke-width:1;"/><path d="M480.9456,356.0466 L480.9456,357.4372 L482.3519,357.4372 L482.3519,364.5622 L480.9456,364.5622 L480.9456,365.9528 L489.5863,365.9528 L489.5863,362.2653 L488.1644,362.2653 L488.0863,364.5622 L483.8363,364.5622 L483.8363,361.4372 L485.8363,361.4372 L485.8363,362.6403 L487.2581,362.6403 L487.2581,358.8122 L485.8363,358.8122 L485.8363,360.0309 L483.8363,360.0309 L483.8363,357.4372 L487.93,357.4372 L488.0863,359.7184 L489.4925,359.7184 L489.4144,356.0466 L480.9456,356.0466 Z " fill="#000000"/><text fill="#000000" font-family="Verdana" font-size="12" font-style="italic" lengthAdjust="spacing" textLength="91.4648" x="498.3455" y="356.9587">&#171;Value Object&#187;</text><text fill="#000000" font-family="Verdana" font-size="14" lengthAdjust="spacing" textLength="93.7959" x="497.18" y="372.7839">LocationType</text><line style="stroke:#000000;stroke-width:1;" x1="473.18" x2="592.9759" y1="381.0856" y2="381.0856"/><text fill="#000000" font-family="Verdana" font-size="14" lengthAdjust="spacing" textLength="93.4951" x="478.18" y="398.0807">SHOP_FLOOR</text><text fill="#000000" font-family="Verdana" font-size="14" lengthAdjust="spacing" textLength="85.5518" x="478.18" y="414.3776">BACKSTOCK</text><line style="stroke:#000000;stroke-width:1;" x1="473.18" x2="592.9759" y1="421.6794" y2="421.6794"/></g><!--reverse link StorageLocation to LocationId--><g class="link" data-entity-1="ent0002" data-entity-2="ent0004" data-link-type="composition" data-source-line="37" id="lnk6"><path codeLine="37" d="M379.08,259.86 C379.08,296.44 379.08,322.1 379.08,348.56" fill="none" id="StorageLocation-backto-LocationId" style="stroke:#000000;stroke-width:1;"/><polygon fill="#000000" points="379.08,247.86,375.08,253.86,379.08,259.86,383.08,253.86,379.08,247.86" style="stroke:#000000;stroke-width:1;"/></g><!--reverse link StorageLocation to LocationType--><g class="link" data-entity-1="ent0002" data-entity-2="ent0005" data-link-type="composition" data-source-line="38" id="lnk7"><path codeLine="38" d="M456.4511,258.1154 C476.4711,291.0654 490.79,314.64 506.41,340.36" fill="none" id="StorageLocation-backto-LocationType" style="stroke:#000000;stroke-width:1;"/><polygon fill="#000000" points="450.22,247.86,449.9171,255.0647,456.4511,258.1154,456.754,250.9107,450.22,247.86" style="stroke:#000000;stroke-width:1;"/></g><!--reverse link StorageLocation to StockLevel--><g class="link" data-entity-1="ent0002" data-entity-2="ent0003" data-link-type="composition" data-source-line="39" id="lnk8"><path codeLine="39" d="M264.7678,256.7482 C240.7578,283.2182 224.3,301.35 203.48,324.29" fill="none" id="StorageLocation-backto-StockLevel" style="stroke:#000000;stroke-width:1;"/><polygon fill="#000000" points="272.83,247.86,265.8361,249.6167,264.7678,256.7482,271.7616,254.9915,272.83,247.86" style="stroke:#000000;stroke-width:1;"/><text fill="#000000" font-family="Verdana" font-size="13" lengthAdjust="spacing" textLength="53.3838" x="245.08" y="290.5969">contient</text><text fill="#000000" font-family="Verdana" font-size="13" lengthAdjust="spacing" textLength="8.271" x="258.1202" y="267.5843">1</text><text fill="#000000" font-family="Verdana" font-size="13" lengthAdjust="spacing" textLength="23.0356" x="185.4425" y="313.4481">0..*</text></g><?plantuml-src fLF1JkCm4BttAsPxAYn5SAsgIgLiHKHG406ko4b6gRUk9zYJ8bZjl-_4b2PbIozSudZUU-FdySmFNk0AeJ9AsvvVQbiffrQGgNnPEgfjCID33jWfwmL2onrMRfJtKsQdivenoicc-WtXhDSB2AHCJfKOKwvOauNnU5gM3al527T4F9d0dnx04Co64HKmWdYx2PXVK1NYQVW9CNwjiCEyb-rx7fMXQQXYoPQRr2zY8rz6jj32bhkCGCijGke6Y76DnalqHbNZMqT5dNDKd42w1ISDUIYVdwBC7IgF0HnK7snHTvJFjRAi-VNzf2DPrgIBe2_mU_eIkVMrNt-qlQ3OzKtHveR8nVJoDJyZCgXiq2oK_sMfBXS7FJfyhhN3elNuaUDlv_KtHkNX7vMf4PBiD-Rji-_D7P3T4lnV_u5QINDoUtfxs4wT3_6sHjk6-yheEWH7yF0GNJOwjFLgf_ls2zEhvFPf7YV9dMmkfhFhz3wPNJS9Fa_6yN3OxVj3S6ZspuJ-UJ-G-cUdfyVzRkb786F9MWRt7m00?></g></svg>