<?plantuml 1.2026.1?><svg xmlns="http://www.w3.org/2000/svg" xmlns:xlink="http://www.w3.org/1999/xlink" contentStyleType="text/css" data-diagram-type="DESCRIPTION" height="654px" preserveAspectRatio="none" style="width:882px;height:654px;" version="1.1" viewBox="0 0 882 654" width="882px" zoomAndPan="magnify"><defs/><g><!--cluster Domaine principal--><g class="cluster" data-qualified-name="Domaine principal" data-source-line="5" id="ent0002"><rect fill="#FFFFFF" height="343.89" rx="2.5" ry="2.5" style="stroke:#000000;stroke-width:1;" width="423" x="199.56" y="158.29"/><text fill="#000000" font-family="Verdana" font-size="14" font-weight="bold" lengthAdjust="spacing" textLength="143.4658" x="339.3271" y="173.2851">Domaine principal</text></g><!--cluster Support--><g class="cluster" data-qualified-name="Support" data-source-line="12" id="ent0007"><rect fill="#FFFFFF" height="97.3" rx="2.5" ry="2.5" style="stroke:#000000;stroke-width:1;" width="354" x="65.56" y="551.18"/><text fill="#000000" font-family="Verdana" font-size="14" font-weight="bold" lengthAdjust="spacing" textLength="63.3076" x="210.9062" y="566.1751">Support</text></g><!--cluster Domain Services--><g class="cluster" data-qualified-name="Domain Services" data-source-line="18" id="ent0011"><rect fill="#FFFFFF" height="97.29" rx="2.5" ry="2.5" style="stroke:#000000;stroke-width:1;" width="427" x="360.56" y="12"/><text fill="#000000" font-family="Verdana" font-size="14" font-weight="bold" lengthAdjust="spacing" textLength="131.4482" x="508.3359" y="26.9951">Domain Services</text></g><!--entity P--><g class="entity" data-qualified-name="Domaine principal.P" data-source-line="6" id="ent0003"><rect fill="#FFFFFF" height="46.2969" rx="2.5" ry="2.5" style="stroke:#000000;stroke-width:1;" width="93.71" x="361.7" y="439.89"/><rect fill="#FFFFFF" height="10" style="stroke:#000000;stroke-width:1;" width="15" x="435.41" y="444.89"/><rect fill="#FFFFFF" height="2" style="stroke:#000000;stroke-width:1;" width="4" x="433.41" y="446.89"/><rect fill="#FFFFFF" height="2" style="stroke:#000000;stroke-width:1;" width="4" x="433.41" y="450.89"/><text fill="#000000" font-family="Verdana" font-size="14" lengthAdjust="spacing" textLength="53.71" x="376.7" y="472.8851">Product</text></g><!--entity SL--><g class="entity" data-qualified-name="Domaine principal.SL" data-source-line="7" id="ent0004"><rect fill="#FFFFFF" height="46.2969" rx="2.5" ry="2.5" style="stroke:#000000;stroke-width:1;" width="154.2354" x="452.44" y="316.59"/><rect fill="#FFFFFF" height="10" style="stroke:#000000;stroke-width:1;" width="15" x="586.6754" y="321.59"/><rect fill="#FFFFFF" height="2" style="stroke:#000000;stroke-width:1;" width="4" x="584.6754" y="323.59"/><rect fill="#FFFFFF" height="2" style="stroke:#000000;stroke-width:1;" width="4" x="584.6754" y="327.59"/><text fill="#000000" font-family="Verdana" font-size="14" lengthAdjust="spacing" textLength="114.2354" x="467.44" y="349.5851">StorageLocation</text></g><!--entity SM--><g class="entity" data-qualified-name="Domaine principal.SM" data-source-line="8" id="ent0005"><rect fill="#FFFFFF" height="46.2969" rx="2.5" ry="2.5" style="stroke:#000000;stroke-width:1;" width="152.9023" x="291.11" y="193.29"/><rect fill="#FFFFFF" height="10" style="stroke:#000000;stroke-width:1;" width="15" x="424.0123" y="198.29"/><rect fill="#FFFFFF" height="2" style="stroke:#000000;stroke-width:1;" width="4" x="422.0123" y="200.29"/><rect fill="#FFFFFF" height="2" style="stroke:#000000;stroke-width:1;" width="4" x="422.0123" y="204.29"/><text fill="#000000" font-family="Verdana" font-size="14" lengthAdjust="spacing" textLength="112.9023" x="306.11" y="226.2851">StockMovement</text></g><!--entity SA--><g class="entity" data-qualified-name="Domaine principal.SA" data-source-line="9" id="ent0006"><rect fill="#FFFFFF" height="46.2969" rx="2.5" ry="2.5" style="stroke:#000000;stroke-width:1;" width="69.9688" x="215.57" y="316.59"/><rect fill="#FFFFFF" height="10" style="stroke:#000000;stroke-width:1;" width="15" x="265.5388" y="321.59"/><rect fill="#FFFFFF" height="2" style="stroke:#000000;stroke-width:1;" width="4" x="263.5388" y="323.59"/><rect fill="#FFFFFF" height="2" style="stroke:#000000;stroke-width:1;" width="4" x="263.5388" y="327.59"/><text fill="#000000" font-family="Verdana" font-size="14" lengthAdjust="spacing" textLength="29.9688" x="230.57" y="349.5851">Sale</text></g><!--entity C--><g class="entity" data-qualified-name="Support.C" data-source-line="13" id="ent0008"><rect fill="#FFFFFF" height="46.2969" rx="2.5" ry="2.5" style="stroke:#000000;stroke-width:1;" width="103.9502" x="299.58" y="586.18"/><rect fill="#FFFFFF" height="10" style="stroke:#000000;stroke-width:1;" width="15" x="383.5302" y="591.18"/><rect fill="#FFFFFF" height="2" style="stroke:#000000;stroke-width:1;" width="4" x="381.5302" y="593.18"/><rect fill="#FFFFFF" height="2" style="stroke:#000000;stroke-width:1;" width="4" x="381.5302" y="597.18"/><text fill="#000000" font-family="Verdana" font-size="14" lengthAdjust="spacing" textLength="63.9502" x="314.58" y="619.1751">Category</text></g><!--entity SH--><g class="entity" data-qualified-name="Support.SH" data-source-line="14" id="ent0009"><rect fill="#FFFFFF" height="46.2969" rx="2.5" ry="2.5" style="stroke:#000000;stroke-width:1;" width="75.2119" x="188.95" y="586.18"/><rect fill="#FFFFFF" height="10" style="stroke:#000000;stroke-width:1;" width="15" x="244.1619" y="591.18"/><rect fill="#FFFFFF" height="2" style="stroke:#000000;stroke-width:1;" width="4" x="242.1619" y="593.18"/><rect fill="#FFFFFF" height="2" style="stroke:#000000;stroke-width:1;" width="4" x="242.1619" y="597.18"/><text fill="#000000" font-family="Verdana" font-size="14" lengthAdjust="spacing" textLength="35.2119" x="203.95" y="619.1751">Shop</text></g><!--entity U--><g class="entity" data-qualified-name="Support.U" data-source-line="15" id="ent0010"><rect fill="#FFFFFF" height="46.2969" rx="2.5" ry="2.5" style="stroke:#000000;stroke-width:1;" width="71.9102" x="81.6" y="586.18"/><rect fill="#FFFFFF" height="10" style="stroke:#000000;stroke-width:1;" width="15" x="133.5102" y="591.18"/><rect fill="#FFFFFF" height="2" style="stroke:#000000;stroke-width:1;" width="4" x="131.5102" y="593.18"/><rect fill="#FFFFFF" height="2" style="stroke:#000000;stroke-width:1;" width="4" x="131.5102" y="597.18"/><text fill="#000000" font-family="Verdana" font-size="14" lengthAdjust="spacing" textLength="31.9102" x="96.6" y="619.1751">User</text></g><!--entity SAS--><g class="entity" data-qualified-name="Domain Services.SAS" data-source-line="19" id="ent0012"><rect fill="#FFFFFF" height="46.2969" rx="2.5" ry="2.5" style="stroke:#000000;stroke-width:1;" width="199.5029" x="376.81" y="47"/><rect fill="#FFFFFF" height="10" style="stroke:#000000;stroke-width:1;" width="15" x="556.3129" y="52"/><rect fill="#FFFFFF" height="2" style="stroke:#000000;stroke-width:1;" width="4" x="554.3129" y="54"/><rect fill="#FFFFFF" height="2" style="stroke:#000000;stroke-width:1;" width="4" x="554.3129" y="58"/><text fill="#000000" font-family="Verdana" font-size="14" lengthAdjust="spacing" textLength="159.5029" x="391.81" y="79.9951">StockAllocationService</text></g><!--entity RS--><g class="entity" data-qualified-name="Domain Services.RS" data-source-line="20" id="ent0013"><rect fill="#FFFFFF" height="46.2969" rx="2.5" ry="2.5" style="stroke:#000000;stroke-width:1;" width="160.2168" x="611.45" y="47"/><rect fill="#FFFFFF" height="10" style="stroke:#000000;stroke-width:1;" width="15" x="751.6668" y="52"/><rect fill="#FFFFFF" height="2" style="stroke:#000000;stroke-width:1;" width="4" x="749.6668" y="54"/><rect fill="#FFFFFF" height="2" style="stroke:#000000;stroke-width:1;" width="4" x="749.6668" y="58"/><text fill="#000000" font-family="Verdana" font-size="14" lengthAdjust="spacing" textLength="120.2168" x="626.45" y="79.9951">ReceivingService</text></g><!--link P to C--><g class="link" data-entity-1="ent0003" data-entity-2="ent0008" data-link-type="dependency" data-source-line="23" id="lnk14"><path d="M399.65,486.58 C388.94,513.69 373.2848,553.3298 362.6048,580.3598" fill="none" id="P-to-C" style="stroke:#000000;stroke-width:1;"/><polygon fill="#000000" points="360.4,585.94,367.4274,579.0396,362.2374,581.2898,359.9871,576.0998,360.4,585.94" style="stroke:#000000;stroke-width:1;"/><text fill="#000000" font-family="Verdana" font-size="13" lengthAdjust="spacing" textLength="79.9233" x="387.56" y="531.2469">appartient &#224;</text></g><!--link SL to SH--><g class="link" data-entity-1="ent0004" data-entity-2="ent0009" data-link-type="dependency" data-source-line="24" id="lnk15"><path d="M452.29,360.66 C449.01,361.42 445.75,362.17 442.56,362.89 C374.09,378.21 339.23,345.42 287.56,392.89 C231.88,444.04 225.5627,535.8301 225.7627,579.8601" fill="none" id="SL-to-SH" style="stroke:#000000;stroke-width:1;"/><polygon fill="#000000" points="225.79,585.86,229.7491,576.8419,225.7673,580.8601,221.7492,576.8783,225.79,585.86" style="stroke:#000000;stroke-width:1;"/><text fill="#000000" font-family="Verdana" font-size="13" lengthAdjust="spacing" textLength="67.082" x="254.56" y="467.5969">situ&#233; dans</text></g><!--link SM to P--><g class="link" data-entity-1="ent0005" data-entity-2="ent0003" data-link-type="dependency" data-source-line="25" id="lnk16"><path d="M366.17,239.86 C364.89,268.64 364.25,319.97 372.56,362.89 C377.85,390.21 387.1455,414.5429 395.7755,434.2729" fill="none" id="SM-to-P" style="stroke:#000000;stroke-width:1;"/><polygon fill="#000000" points="398.18,439.77,398.238,429.9213,396.1763,435.1891,390.9085,433.1273,398.18,439.77" style="stroke:#000000;stroke-width:1;"/><text fill="#000000" font-family="Verdana" font-size="13" lengthAdjust="spacing" textLength="60.0679" x="373.56" y="344.3069">concerne</text></g><!--link SM to SL--><g class="link" data-entity-1="ent0005" data-entity-2="ent0004" data-link-type="dependency" data-source-line="26" id="lnk17"><path d="M372.89,239.97 C377.47,254.92 385.45,274.03 398.56,286.59 C413.49,300.9 427.2703,309.2187 446.4903,316.9187" fill="none" id="SM-to-SL" style="stroke:#000000;stroke-width:1;"/><polygon fill="#000000" points="452.06,319.15,445.1931,312.0899,447.4186,317.2905,442.2179,319.5161,452.06,319.15" style="stroke:#000000;stroke-width:1;"/><text fill="#000000" font-family="Verdana" font-size="13" lengthAdjust="spacing" textLength="128.9399" x="399.56" y="282.6569">source / destination</text></g><!--link SM to U--><g class="link" data-entity-1="ent0005" data-entity-2="ent0010" data-link-type="dependency" data-source-line="27" id="lnk18"><path d="M290.72,234.02 C212.44,255.58 95.75,301.8 46.56,392.89 C11,458.73 63.6563,540.7739 95.0563,581.1439" fill="none" id="SM-to-U" style="stroke:#000000;stroke-width:1;"/><polygon fill="#000000" points="98.74,585.88,96.3718,576.3201,95.6702,581.9333,90.057,581.2317,98.74,585.88" style="stroke:#000000;stroke-width:1;"/><text fill="#000000" font-family="Verdana" font-size="13" lengthAdjust="spacing" textLength="79.3267" x="47.56" y="405.9569">effectu&#233; par</text></g><!--link SM to SA--><g class="link" data-entity-1="ent0005" data-entity-2="ent0006" data-link-type="dependency" data-source-line="28" id="lnk19"><path d="M290.76,235.38 C273.76,243.07 257.77,254.01 247.56,269.59 C238.6,283.26 238.6715,296.0689 241.9615,310.5589" fill="none" id="SM-to-SA" style="stroke:#000000;stroke-width:1;stroke-dasharray:7,7;"/><polygon fill="#000000" points="243.29,316.41,245.198,306.7477,242.1829,311.5341,237.3965,308.5191,243.29,316.41" style="stroke:#000000;stroke-width:1;"/><text fill="#000000" font-family="Verdana" font-size="13" lengthAdjust="spacing" textLength="102.5527" x="248.56" y="282.6569">li&#233; &#224; (optionnel)</text></g><!--link SA to U--><g class="link" data-entity-1="ent0006" data-entity-2="ent0010" data-link-type="dependency" data-source-line="29" id="lnk20"><path d="M215.36,354.68 C182.02,370.01 133.96,398.15 112.56,439.89 C88.33,487.14 99.3599,546.2801 108.7699,580.0601" fill="none" id="SA-to-U" style="stroke:#000000;stroke-width:1;"/><polygon fill="#000000" points="110.38,585.84,111.8181,576.0967,109.0383,581.0234,104.1116,578.2435,110.38,585.84" style="stroke:#000000;stroke-width:1;"/><text fill="#000000" font-family="Verdana" font-size="13" lengthAdjust="spacing" textLength="100.3501" x="113.56" y="467.5969">enregistr&#233;e par</text></g><!--link SA to P--><g class="link" data-entity-1="ent0006" data-entity-2="ent0003" data-link-type="dependency" data-source-line="30" id="lnk21"><path d="M267.32,363.11 C278.93,377.62 295.35,396.29 312.56,409.89 C327.44,421.65 340.0146,429.416 356.3146,437.876" fill="none" id="SA-to-P" style="stroke:#000000;stroke-width:1;"/><polygon fill="#000000" points="361.64,440.64,355.4945,432.9437,357.2021,438.3367,351.8092,440.0443,361.64,440.64" style="stroke:#000000;stroke-width:1;"/><text fill="#000000" font-family="Verdana" font-size="13" lengthAdjust="spacing" textLength="32.1826" x="313.56" y="405.9569">vend</text></g><!--link SAS to SL--><g class="link" data-entity-1="ent0012" data-entity-2="ent0004" data-link-type="dependency" data-source-line="32" id="lnk22"><path d="M508.31,93.62 C517.97,102.3 527.38,113.09 532.56,125.29 C559.98,189.95 546.5448,270.002 536.9948,310.262" fill="none" id="SAS-to-SL" style="stroke:#000000;stroke-width:1;"/><polygon fill="#000000" points="535.61,316.1,541.5792,308.2662,536.764,311.235,533.7952,306.4198,535.61,316.1" style="stroke:#000000;stroke-width:1;"/><text fill="#000000" font-family="Verdana" font-size="13" lengthAdjust="spacing" textLength="133.1484" x="548.56" y="221.0069">consulte les niveaux</text></g><!--link SAS to SM--><g class="link" data-entity-1="ent0012" data-entity-2="ent0005" data-link-type="dependency" data-source-line="33" id="lnk23"><path d="M423.17,93.6 C409.4,101.73 395.86,112.22 386.56,125.29 C372.37,145.23 368.6482,167.5469 367.7082,187.0969" fill="none" id="SAS-to-SM" style="stroke:#000000;stroke-width:1;"/><polygon fill="#000000" points="367.42,193.09,371.8476,184.2925,367.6601,188.0958,363.8569,183.9083,367.42,193.09" style="stroke:#000000;stroke-width:1;"/><text fill="#000000" font-family="Verdana" font-size="13" lengthAdjust="spacing" textLength="140.4546" x="387.56" y="138.3569">cr&#233;e les mouvements</text></g><!--link RS to SL--><g class="link" data-entity-1="ent0013" data-entity-2="ent0004" data-link-type="dependency" data-source-line="34" id="lnk24"><path d="M709.73,93.75 C716.03,102.97 722.33,114.09 725.56,125.29 C737.48,166.7 713.85,210.9 690.56,239.59 C662.73,273.86 625.1084,296.8921 590.5284,313.5021" fill="none" id="RS-to-SL" style="stroke:#000000;stroke-width:1;"/><polygon fill="#000000" points="585.12,316.1,594.9646,315.8088,589.627,313.9351,591.5007,308.5976,585.12,316.1" style="stroke:#000000;stroke-width:1;"/><text fill="#000000" font-family="Verdana" font-size="13" lengthAdjust="spacing" textLength="145.228" x="729.56" y="221.0069">met &#224; jour les niveaux</text></g><!--link RS to SM--><g class="link" data-entity-1="ent0013" data-entity-2="ent0005" data-link-type="dependency" data-source-line="35" id="lnk25"><path d="M644.32,93.7 C628.26,101.29 610.17,109.74 593.56,117.29 C568.38,128.74 562.43,132.51 536.56,142.29 C525.65,146.42 522.45,146.1 511.56,150.29 C478.27,163.1 447.0731,177.1329 419.1031,190.3729" fill="none" id="RS-to-SM" style="stroke:#000000;stroke-width:1;"/><polygon fill="#000000" points="413.68,192.94,423.526,192.7047,418.1992,190.8007,420.1032,185.4739,413.68,192.94" style="stroke:#000000;stroke-width:1;"/><text fill="#000000" font-family="Verdana" font-size="13" lengthAdjust="spacing" textLength="140.4546" x="576.56" y="138.3569">cr&#233;e les mouvements</text></g><?plantuml-src XL4xJWCn4ErzYY4L50az1L8KYXI95CLAXIYCTx8nyOujsxiYGjmbBUV8nHXxDnygodc_UHxVfHqs2DugGoBk3NaLL0FlIk_hu5ggPiww02aeYamXfHkLPvMgKQQ3HGYeawBQeX033gCNrt0knmT3sdXbH_0b05vNmLMjJc-W8gmo89CBx5WuhP9nL0Yv61YzNxgEMr9laCk2AulzE1NVDojbwxqBQLWqKmbh5mv5EIk-dVEzRvx7JSHGnisVbBuuI0oTqHY7jD9bQktGSc275Z8hrgZHT8RgMsujS_OAnkDdcC4JAC_dIuRV0wUZa8j2o3apqQJsz0CL7rl8PS5N36j76WFX6MCBQrqRDC8ZL1YJeTBeBDWmZzij_qYEussPc4pOEMN66WPFHxXtFfi8xODWucAaWBM9APn-iFTEBqqwf4em8Ayzk5niRKAm685CXwhzl2gMML6ICjsujl_8ADOt4GtcIy07l-XFolgVa5y0?></g></svg>